<?xml version="1.0" encoding="utf-8"?>
<!-- Generator: Adobe Illustrator 17.0.0, SVG Export Plug-In . SVG Version: 6.00 Build 0)  -->
<!DOCTYPE svg PUBLIC "-//W3C//DTD SVG 1.1//EN" "http://www.w3.org/Graphics/SVG/1.1/DTD/svg11.dtd">
<svg version="1.1" id="Capa_1" xmlns="http://www.w3.org/2000/svg" xmlns:xlink="http://www.w3.org/1999/xlink" x="0px" y="0px"
	 width="164px" height="164px" viewBox="0 0 164 164" enable-background="new 0 0 164 164" xml:space="preserve">
<line fill="#000CCC" stroke="#CCCCCC" stroke-width="0.5" stroke-miterlimit="10" x1="82.012" y1="28.036" x2="82.012" y2="34.839"/>
<line fill="#000CCC" stroke="#CCCCCC" stroke-width="0.5" stroke-miterlimit="10" x1="82.012" y1="128.036" x2="82.012" y2="134.839"/>
<line fill="#000CCC" stroke="#CCCCCC" stroke-width="0.5" stroke-miterlimit="10" x1="131.11" y1="81.536" x2="137.914" y2="81.536"/>
<line fill="#000CCC" stroke="#CCCCCC" stroke-width="0.5" stroke-miterlimit="10" x1="27.61" y1="81.536" x2="34.414" y2="81.536"/>
<g enable-background="new    ">
	<path fill="#CCCCCC" d="M85.171,22.261h-1.39l-3.565-5.548v5.548h-1.39v-7.82h1.39l3.576,5.57v-5.57h1.379V22.261z"/>
</g>
<g enable-background="new    ">
	<path fill="#CCCCCC" d="M83.241,146.369c0-0.158-0.024-0.299-0.071-0.422c-0.048-0.124-0.135-0.237-0.262-0.341
		c-0.126-0.104-0.3-0.203-0.521-0.299c-0.222-0.095-0.506-0.193-0.854-0.298c-0.38-0.11-0.732-0.238-1.054-0.381
		c-0.322-0.144-0.6-0.31-0.832-0.5c-0.232-0.189-0.415-0.408-0.546-0.655s-0.198-0.529-0.198-0.849c0-0.314,0.068-0.604,0.206-0.87
		c0.137-0.265,0.33-0.494,0.579-0.688s0.548-0.344,0.896-0.451c0.348-0.107,0.732-0.161,1.154-0.161c0.45,0,0.854,0.063,1.214,0.19
		c0.358,0.128,0.661,0.301,0.909,0.519c0.247,0.219,0.437,0.472,0.568,0.76c0.132,0.289,0.197,0.596,0.197,0.922h-1.384
		c0-0.19-0.03-0.364-0.091-0.524c-0.061-0.159-0.153-0.297-0.277-0.413c-0.125-0.116-0.282-0.207-0.473-0.271
		s-0.416-0.097-0.676-0.097c-0.245,0-0.458,0.027-0.637,0.081s-0.329,0.129-0.448,0.226s-0.207,0.211-0.264,0.344
		c-0.057,0.132-0.085,0.275-0.085,0.43c0,0.29,0.14,0.531,0.42,0.725c0.28,0.193,0.708,0.373,1.283,0.537
		c0.45,0.129,0.84,0.272,1.17,0.43c0.329,0.158,0.604,0.336,0.821,0.534c0.218,0.199,0.38,0.423,0.486,0.672
		c0.105,0.249,0.159,0.529,0.159,0.841c0,0.329-0.067,0.625-0.2,0.889c-0.134,0.263-0.324,0.487-0.571,0.671
		c-0.248,0.185-0.547,0.326-0.898,0.425s-0.743,0.147-1.176,0.147c-0.384,0-0.763-0.051-1.137-0.153
		c-0.374-0.102-0.708-0.256-1.005-0.462c-0.296-0.205-0.535-0.462-0.717-0.771c-0.181-0.308-0.272-0.669-0.272-1.085h1.39
		c0,0.247,0.044,0.459,0.134,0.637c0.09,0.177,0.212,0.322,0.368,0.435c0.156,0.113,0.34,0.195,0.552,0.247
		c0.212,0.053,0.441,0.078,0.686,0.078c0.483,0,0.847-0.096,1.091-0.287C83.119,146.938,83.241,146.684,83.241,146.369z"/>
</g>
<g enable-background="new    ">
	<path fill="#CCCCCC" d="M149.869,81.4h-3.285v2.406h3.84v1.085h-5.229v-7.82h5.191v1.096h-3.802v2.159h3.285V81.4z"/>
</g>
<g enable-background="new    ">
	<path fill="#CCCCCC" d="M20.085,82.958l1.23-5.887h1.379l-1.846,7.82h-1.33l-1.521-5.709l-1.554,5.709h-1.335l-1.846-7.82h1.379
		l1.241,5.876l1.527-5.876h1.164L20.085,82.958z"/>
</g>
<path fill="#FFFFFF" stroke="#E6E6E5" stroke-width="5" stroke-miterlimit="10" d="M82,42.101
	c-22.544,0-40.804,17.855-40.804,39.899c0,22.024,18.26,39.899,40.804,39.899S122.804,104.024,122.804,82
	C122.804,59.956,104.544,42.101,82,42.101z"/>
</svg>
